<svg xmlns="http://www.w3.org/2000/svg" width="16" height="16" viewBox="0 0 16 16"><ellipse cx="8" cy="8.6" rx="6" ry="2.3" fill="#eef1f4" stroke="#8a97a3"/><path d="M2 8.6V6.4c0-.4.2-.7.5-.9M14 8.6V6.4c0-.4-.2-.7-.5-.9" fill="none" stroke="#8a97a3"/><path d="M4.5 2v4.4M4.5 2c-1 0-1.6.9-1.6 2.2S3.5 6.4 4.5 6.4M4.5 2c1 0 1.6.9 1.6 2.2S5.5 6.4 4.5 6.4" fill="none" stroke="#6b7d92" stroke-linecap="round"/><path d="M11.6 2v4.4M11 2.1 10.8 4c-.1.7.2 1.1.8 1.1s.9-.4.8-1.1L11.4 2.1" fill="none" stroke="#6b7d92" stroke-linecap="round" stroke-linejoin="round"/></svg>
